HIERARCHY
ROOT Hips
{
	OFFSET -3.958830 18.904000 13.208200
	CHANNELS 6 Xposition Yposition Zposition Zrotation Yrotation Xrotation 
	JOINT LHipJoint
	{
		OFFSET 0.000000 0.000000 0.000000
		CHANNELS 3 Zrotation Yrotation Xrotation
		JOINT LeftUpLeg
		{
			OFFSET 1.800000 -1.400000 0.085000
			CHANNELS 3 Zrotation Yrotation Xrotation
			JOINT LeftLeg
			{
				OFFSET 2.215000 -6.000000 0.000000
				CHANNELS 3 Zrotation Yrotation Xrotation
				JOINT LeftFoot
				{
					OFFSET 2.500000 -6.900000 0.000000
					CHANNELS 3 Zrotation Yrotation Xrotation
					JOINT LeftToeBase
					{
						OFFSET 0.200000 -0.500000 1.950000
						CHANNELS 3 Zrotation Yrotation Xrotation
						End Site
						{
							OFFSET 0.000000 0.000000 0.000000
						}
					}
				}
			}
		}
	}
	JOINT RHipJoint
	{
		OFFSET 0.000000 0.000000 0.000000
		CHANNELS 3 Zrotation Yrotation Xrotation
		JOINT RightUpLeg
		{
			OFFSET -1.800000 -1.400000 0.085000
			CHANNELS 3 Zrotation Yrotation Xrotation
			JOINT RightLeg
			{
				OFFSET -2.215000 -6.000000 0.000000
				CHANNELS 3 Zrotation Yrotation Xrotation
				JOINT RightFoot
				{
					OFFSET -2.500000 -6.900000 0.000000
					CHANNELS 3 Zrotation Yrotation Xrotation
					JOINT RightToeBase
					{
						OFFSET -0.200000 -0.500000 1.950000
						CHANNELS 3 Zrotation Yrotation Xrotation
						End Site
						{
							OFFSET 0.000000 0.000000 0.000000
						}
					}
				}
			}
		}
	}
	JOINT LowerBack
	{
		OFFSET 0.000000 0.000000 0.000000
		CHANNELS 3 Zrotation Yrotation Xrotation
		JOINT Spine
		{
			OFFSET -0.087000 1.940000 -0.288900
			CHANNELS 3 Zrotation Yrotation Xrotation
			JOINT Spine1
			{
				OFFSET 0.000000 1.950000 0.060000
				CHANNELS 3 Zrotation Yrotation Xrotation
				JOINT Neck
				{
					OFFSET 0.000000 0.000000 0.000000
					CHANNELS 3 Zrotation Yrotation Xrotation
					JOINT Neck1
					{
						OFFSET 0.000000 1.600000 0.340000
						CHANNELS 3 Zrotation Yrotation Xrotation
						JOINT Head
						{
							OFFSET 0.000000 1.667000 -0.240000
							CHANNELS 3 Zrotation Yrotation Xrotation
							End Site
							{
								OFFSET 0.000000 0.000000 0.000000
							}
						}
					}
				}
				JOINT LeftShoulder
				{
					OFFSET 0.000000 0.000000 0.000000
					CHANNELS 3 Zrotation Yrotation Xrotation
					JOINT LeftArm
					{
						OFFSET 2.700000 1.550000 -0.730000
						CHANNELS 3 Zrotation Yrotation Xrotation
						JOINT LeftForeArm
						{
							OFFSET 5.450000 0.000000 0.000000
							CHANNELS 3 Zrotation Yrotation Xrotation
							JOINT LeftHand
							{
								OFFSET 3.450000 0.000000 0.000000
								CHANNELS 3 Zrotation Yrotation Xrotation
								JOINT LeftHandIndex1
								{
									OFFSET 0.750000 0.000000 0.000000
									CHANNELS 3 Zrotation Yrotation Xrotation
									End Site
									{
										OFFSET 0.000000 0.000000 0.000000
									}
								}
							}
						}
					}
				}
				JOINT RightShoulder
				{
					OFFSET 0.000000 0.000000 0.000000
					CHANNELS 3 Zrotation Yrotation Xrotation
					JOINT RightArm
					{
						OFFSET -2.700000 1.550000 -0.730000
						CHANNELS 3 Zrotation Yrotation Xrotation
						JOINT RightForeArm
						{
							OFFSET -5.450000 0.000000 0.000000
							CHANNELS 3 Zrotation Yrotation Xrotation
							JOINT RightHand
							{
								OFFSET -3.450000 0.000000 0.000000
								CHANNELS 3 Zrotation Yrotation Xrotation
								JOINT RightHandIndex1
								{
									OFFSET -0.750000 0.000000 0.000000
									CHANNELS 3 Zrotation Yrotation Xrotation
									End Site
									{
										OFFSET 0.000000 0.000000 0.000000
									}
								}
							}
						}
					}
				}
			}
		}
	}
}
MOTION
Frames: 13
Frame Time: 0.016667
-4.771200 17.033910 -8.634520 -17.878409 -27.827309 -3.268567 -15.075146 12.935676 1.795058 13.229244 -0.609505 -5.713085 -6.761418 7.776986 19.470912 -0.274019 5.497516 2.808917 0.025340 -0.280420 0.004600 18.423451 -8.495486 6.001266 -26.600469 5.349965 -34.791311 75.217840 -69.365437 52.504583 -3.107443 -12.934482 0.501387 -0.200080 0.384030 0.214680 -3.992065 -3.699847 -8.539224 24.610788 -11.937232 29.094744 -15.850013 -4.490481 4.006323 6.448948 -4.962141 -17.453213 -14.401129 1.638570 38.431244 -1.549080 -2.430350 -13.932760 14.494822 -24.916667 4.616676 33.921884 -11.582437 -9.663447 44.728689 -33.155552 -9.703977 -4.281904 2.772278 0.730190 0.062970 0.066660 0.141960 -27.400642 29.159886 6.497650 -35.770701 2.458093 -11.274800 -30.402711 18.620196 -2.573208 2.587187 -1.444162 -0.305560 0.406730 0.239640 -0.119790 
-4.960880 17.348880 -8.528070 -18.804850 -26.361247 -2.650563 -15.096771 13.031448 2.046466 15.515003 -0.024488 -2.168355 -6.526981 6.541786 10.962037 -0.289447 5.222322 2.979739 -0.025200 -0.376590 0.029270 18.397514 -8.582821 5.584366 -28.563153 3.118767 -34.647980 84.859049 -69.623126 44.477892 -2.909176 -11.985762 0.769305 -0.259480 0.374740 0.208030 -3.871224 -4.033776 -8.504515 26.961012 -12.998448 28.210486 -15.616323 -5.082864 2.468203 6.400442 -4.502967 -17.116676 -14.068295 1.957708 39.804429 -4.094230 -1.067560 -14.469720 14.968397 -23.749064 4.942866 39.587763 -9.561521 -8.394691 43.623734 -30.059268 -7.652770 -4.301785 2.643584 0.805420 0.053700 0.085220 0.123110 -27.941449 27.440421 6.853310 -36.398423 0.745211 -10.962690 -34.734891 19.385509 -3.228086 2.624124 -1.403772 -0.354980 0.430590 0.259050 -0.163170 
-5.133190 17.656310 -8.430260 -19.650859 -25.398127 -2.491781 -15.136870 12.900936 2.431300 17.385964 0.168808 1.223302 -6.134488 5.633656 3.551521 -0.159624 5.402794 2.967029 -0.045720 -0.391780 0.019290 18.392603 -8.635544 5.097093 -30.260988 1.327269 -34.264247 93.558163 -67.391879 36.583471 -2.779208 -11.531445 0.877742 -0.265940 0.403300 0.250280 -3.839209 -4.073304 -8.480564 28.988052 -14.011050 26.973378 -15.457855 -5.730463 2.877223 6.184585 -4.251798 -16.440307 -12.933271 2.652403 38.419443 -6.034880 0.845150 -13.093080 15.485144 -22.785207 5.301030 42.910793 -6.339420 -7.221681 44.417982 -26.680425 -6.475498 -4.436870 2.661774 0.752210 0.110040 0.066820 0.117880 -28.265135 25.749381 6.842751 -36.694771 -0.173502 -10.906633 -39.493310 18.424810 -4.119392 2.687568 -1.472983 -0.337790 0.395490 0.272540 -0.155650 
-5.296860 17.959930 -8.355990 -19.485563 -23.949834 -2.763040 -15.166100 12.836630 2.684590 18.768533 0.084592 2.613535 -6.815407 5.547761 0.931141 -0.094580 5.717119 2.874214 -0.063110 -0.417980 -0.002770 18.387998 -8.631950 4.778750 -32.149325 -0.265643 -32.643194 98.703113 -62.915999 30.483493 -2.721514 -11.377271 0.913788 -0.266470 0.425250 0.247630 -3.795989 -4.171397 -8.455441 30.114303 -14.968699 26.773271 -15.801810 -6.090120 2.195780 5.825187 -4.469559 -16.398709 -13.194473 2.844991 37.045237 -5.599840 0.782440 -13.439150 16.514592 -21.386314 5.388323 44.410550 -4.292693 -6.363101 44.471075 -22.921048 -5.415485 -4.500091 2.624173 0.760260 0.119600 0.044740 0.111800 -28.571854 24.183776 7.125659 -35.930280 -2.523269 -10.710308 -43.654635 17.729331 -4.663379 2.735206 -1.514607 -0.359960 0.404730 0.295900 -0.160980 
-5.480520 18.241290 -8.289780 -18.850753 -24.840448 -3.051978 -15.183423 12.942144 2.569898 20.222023 0.215014 2.710604 -7.933723 6.452399 4.175964 -0.015276 5.940154 2.786005 -0.107420 -0.484390 -0.025390 18.382866 -8.488753 4.943219 -34.510249 -0.388885 -33.530393 100.170568 -61.558639 29.065834 -2.705376 -11.271344 0.964782 -0.335260 0.408250 0.220070 -3.757609 -4.398757 -8.481809 30.106241 -15.098920 27.902293 -16.548719 -5.753400 0.112668 5.833911 -4.664136 -17.280595 -14.337195 3.879419 38.254230 -4.252730 1.110970 -12.553470 16.693221 -20.844926 5.866467 46.013178 -2.056607 -5.127798 42.664877 -20.383558 -4.082289 -4.445403 2.573954 0.790490 0.077450 0.051100 0.105330 -28.474718 24.224999 7.878571 -35.415976 -4.691712 -10.594882 -45.950609 16.771696 -4.557156 2.851705 -1.492152 -0.362050 0.388110 0.296300 -0.160620 
-5.672830 18.490970 -8.238160 -18.269513 -24.724772 -2.341671 -15.176595 13.014608 2.305208 22.146103 -0.010556 -0.351831 -9.722819 8.419698 12.046046 -0.020528 6.361802 2.587130 -0.185910 -0.575630 -0.069710 18.410683 -8.413286 5.175906 -37.047537 -0.919434 -35.621061 99.022380 -63.021197 30.135242 -2.661362 -11.140683 1.026252 -0.395000 0.439170 0.184040 -3.781739 -4.490275 -8.469871 30.220512 -15.074266 27.856180 -17.104085 -5.483025 -1.433767 5.736936 -4.664157 -17.922554 -14.382095 4.244812 37.642746 -2.923020 1.248210 -12.552640 17.769726 -19.616498 6.177361 46.460511 -0.494359 -4.686706 41.713485 -15.404046 -2.891812 -4.469030 2.451684 0.816340 0.066700 0.036040 0.092160 -29.081524 23.130038 8.291451 -34.088350 -7.035485 -10.574949 -47.500793 14.994904 -4.111928 2.986643 -1.453511 -0.402770 0.420910 0.327820 -0.160370 
-5.870080 18.729670 -8.198790 -17.991949 -24.370240 -1.576995 -15.181740 12.651350 2.339094 25.228993 -0.393107 -4.151033 -13.073988 11.686083 20.483907 0.143713 7.432042 2.103220 -0.133940 -0.516740 -0.016320 18.489446 -8.315790 5.285706 -39.812768 -1.493898 -37.580413 96.850937 -67.200757 32.959317 -2.649009 -10.844365 1.103526 -0.394040 0.356310 0.172840 -3.950024 -4.155644 -8.564020 31.423617 -15.654412 27.316103 -18.827196 -5.685217 -2.277814 5.704561 -4.909760 -17.873498 -14.721277 4.430396 37.454054 -1.284400 1.177420 -15.789110 17.933144 -18.090779 6.241765 46.406517 1.143302 -4.327148 42.469099 -11.502111 -2.146731 -4.353218 2.422804 0.864000 -0.017440 0.103880 0.096030 -29.107273 21.766673 8.264318 -33.991854 -7.774172 -10.360561 -46.946419 11.975162 -3.179358 3.116936 -1.406199 -0.369860 0.400280 0.271920 -0.163970 
-6.053320 18.931530 -8.179720 -18.246060 -24.838502 -1.257522 -15.347249 12.143475 2.842926 29.803972 -0.735137 -7.380608 -17.752199 16.503083 28.218902 0.531372 9.269648 1.413372 -0.111440 -0.484630 -0.028210 18.468155 -7.766342 5.325068 -41.695209 -1.827761 -38.985942 93.338522 -69.219806 35.893232 -2.631421 -10.802533 1.118078 -0.388550 0.330080 0.162640 -3.829986 -4.371209 -8.892376 31.245943 -15.673928 28.714316 -18.106274 -5.377778 -3.280599 5.635531 -5.322420 -18.058228 -15.541437 4.112041 36.535628 -0.350930 0.155610 -15.307730 18.116166 -17.216818 6.505927 45.574847 3.650150 -3.573293 41.885427 -9.885323 -1.655295 -4.349723 2.465220 0.842470 -0.040080 0.104600 0.116320 -28.888172 21.481842 8.596469 -34.132476 -9.688087 -10.163686 -48.134352 9.876264 -2.740919 3.180660 -1.440416 -0.341370 0.365800 0.236490 -0.145000 
-6.238760 19.108930 -8.158760 -17.562854 -25.961677 -2.432856 -15.498699 11.596304 3.463749 34.073564 -0.789241 -8.517680 -23.346816 22.105829 34.109777 0.926751 11.119047 0.792703 -0.072030 -0.466490 0.002930 18.443378 -7.293652 5.296422 -43.028046 -1.415851 -38.835392 90.109817 -68.046080 37.585273 -2.663250 -10.943676 1.034164 -0.358250 0.290420 0.150660 -3.746972 -4.358591 -9.234099 29.890935 -14.979280 30.989607 -17.722741 -4.509039 -3.949283 5.328535 -5.589404 -18.028928 -16.392752 3.431401 36.881464 1.643090 -1.703000 -17.638900 18.459750 -16.162352 6.234264 45.011324 3.743903 -3.664832 40.602019 -7.540693 -1.393574 -4.293345 2.436769 0.905260 -0.093590 0.118110 0.098090 -28.404183 20.965693 8.886667 -33.611124 -11.044947 -10.130188 -49.193266 7.976565 -2.297085 3.183361 -1.417714 -0.360070 0.375400 0.242630 -0.171700 
-6.419000 19.251910 -8.125540 -16.687969 -26.746597 -3.497308 -15.665837 11.169475 4.136165 38.238419 -0.929904 -10.012476 -28.959486 28.589229 39.881219 1.365652 12.685826 0.314389 0.001220 -0.401800 0.067280 18.391542 -6.872110 5.151309 -44.625290 -1.318712 -37.895463 88.435812 -65.767759 37.397900 -2.688997 -11.010794 0.959509 -0.314600 0.208660 0.137730 -3.558178 -4.551020 -9.534526 28.014162 -14.649074 33.248875 -17.190283 -3.907260 -4.951323 5.353424 -5.876109 -18.274643 -17.350385 2.922422 37.206157 2.764110 -2.911250 -19.907500 18.864378 -14.809721 6.041549 43.982785 4.572948 -3.646805 39.930328 -5.206885 -1.096456 -4.232772 2.443164 0.953550 -0.167360 0.156000 0.087670 -28.563234 20.588866 9.266372 -33.058914 -11.178358 -10.544543 -48.759067 4.198739 -1.444108 3.243026 -1.407314 -0.349960 0.357520 0.209550 -0.194950 
-6.612870 19.352860 -8.075240 -14.416216 -26.925399 -3.959231 -15.831705 10.716923 4.840514 41.602402 -1.298446 -12.918634 -35.716105 36.172382 44.656988 1.786768 13.855392 0.019367 0.020060 -0.389720 0.084930 18.341069 -6.465126 5.036810 -46.421736 -1.991246 -37.324012 86.362124 -62.674035 36.534799 -2.691980 -11.042357 0.933615 -0.321020 0.181600 0.140410 -3.340621 -4.723886 -9.915913 24.055303 -12.945763 33.655810 -15.169497 -3.057595 -6.121188 5.076508 -5.461221 -18.340784 -16.814226 3.087342 38.845786 4.295360 -2.975740 -20.855070 18.524792 -14.507143 5.861182 44.265189 5.495750 -3.018544 38.412931 -5.661347 -1.065373 -4.164858 2.443282 0.994100 -0.198780 0.185360 0.086620 -27.534821 20.767284 9.639705 -34.500927 -10.829456 -9.988865 -46.742146 1.267045 -0.491706 3.219434 -1.288735 -0.342470 0.350470 0.200230 -0.205360 
-6.805180 19.439270 -8.029710 -12.267930 -26.568950 -4.749375 -16.002023 10.301676 5.566193 45.235538 -1.797274 -16.414139 -41.828952 44.801891 49.795381 2.084191 14.589387 -0.140019 0.114100 -0.287240 0.171440 18.274296 -6.104566 4.867212 -47.741216 -2.353279 -35.410019 81.325287 -59.539675 37.394111 -2.698715 -11.138101 0.866482 -0.253050 0.114730 0.112510 -3.059836 -4.911304 -10.273578 20.414441 -11.240943 34.333982 -13.150251 -1.846869 -7.041603 5.104640 -5.118175 -18.332839 -16.262030 2.579287 39.702484 4.634330 -3.279000 -21.933230 18.515499 -13.481627 5.493783 43.097665 4.781342 -3.284329 37.197174 -4.609489 -1.085739 -4.078549 2.446167 1.021570 -0.246280 0.220290 0.098130 -27.268195 20.230929 9.720932 -35.065775 -11.738535 -9.281720 -45.016898 0.057910 -0.093469 3.211370 -1.270578 -0.339300 0.354280 0.135460 -0.227390 
-7.019420 19.478400 -7.967460 -9.991484 -25.439175 -4.272953 -16.144345 9.860333 6.172340 48.210076 -1.720135 -20.343620 -48.312425 53.025192 52.436074 2.204042 14.624319 -0.113070 0.209540 -0.180510 0.264830 18.236294 -5.817135 4.802254 -49.774396 -3.511488 -34.731261 76.377707 -58.330396 38.923680 -2.706188 -11.158939 0.835721 -0.195220 0.033290 0.106870 -2.839843 -4.913460 -10.641839 16.998716 -9.080940 32.955371 -11.062261 -0.789859 -7.919608 5.318075 -4.570097 -17.831040 -15.067450 1.398375 40.628360 3.442620 -3.293090 -23.758980 17.535838 -12.536661 4.768897 43.099386 3.079966 -3.368762 34.848116 -3.903444 -1.092370 -3.928596 2.440078 1.060400 -0.287500 0.276530 0.110100 -26.514877 19.608469 9.626210 -36.336080 -12.522189 -8.035237 -42.353003 -0.604437 0.280395 3.170082 -1.218750 -0.323530 0.342730 0.064790 -0.253550 
